<?xml version="1.0" encoding="UTF-8"?>
<!-- Generated by Pixelmator Pro 3.3.6 -->
<svg width="185" height="45" viewBox="0 0 185 45" xmlns="http://www.w3.org/2000/svg">
    <path id="Path" fill="#ffffff" stroke="none" d="M 180.199997 30.700001 L 180.199997 24.6 L 177.600006 24.6 L 177.600006 23.6 L 184.199997 23.6 L 184.199997 24.6 L 181.699997 24.6 L 181.699997 30.700001 Z"/>
    <path id="path1" fill="#ffffff" stroke="none" d="M 12.8 43.799999 L 0.5 10.400002 L 7.9 10.400002 L 17.5 36.200001 L 26.799999 10.400002 L 31.700001 10.400002 L 19.799999 43.799999 Z"/>
    <path id="path2" fill="#ffffff" stroke="none" d="M 35.799999 10.400002 L 42.700001 10.400002 L 42.700001 30.9 C 42.700001 34.599998 43.299999 37 44.599998 38.299999 C 45.900002 39.5 47.5 40.099998 49.5 40.099998 C 51.5 40.099998 53 39.5 54.200001 38.299999 C 55.400002 37.099998 55.900002 34.799999 55.900002 31.4 L 55.900002 10.400002 L 61.900002 10.400002 L 61.900002 30.9 C 61.900002 34.799999 61.400002 37.5 60.400002 39.200001 C 59.400002 40.900002 58 42.200001 56.200001 43.200001 C 54.400002 44.200001 52 44.599998 49.200001 44.599998 C 46.400002 44.599998 44.099998 44.200001 42.099998 43.299999 C 40.099998 42.400002 38.5 41.099998 37.400002 39.299999 C 36.200001 37.5 35.700001 34.700001 35.700001 30.9 L 35.700001 10.400002 Z"/>
    <path id="path3" fill="#ffffff" stroke="none" d="M 71.5 35.599998 L 71.5 36.5 L 71.800003 36.299999 C 71.699997 36.099998 71.699997 35.799999 71.599998 35.599998 L 71.5 35.599998 Z"/>
    <path id="path4" fill="#ffffff" stroke="none" d="M 75.900002 25.799999 C 75.900002 25.700001 76 25.5 76.199997 25.5 C 76.300003 25.5 76.5 25.6 76.5 25.799999 C 76.5 25.9 76.400002 26.1 76.199997 26.1 C 76 26.1 75.900002 26 75.900002 25.799999"/>
    <path id="path5" fill="#ffffff" stroke="none" d="M 92.400002 33.900002 C 92 32.799999 90.900002 32.099998 89.5 32.200001 C 88.699997 30.700001 87.400002 31.4 87 31.799999 C 87.400002 32.200001 87.699997 32.299999 88.199997 32.400002 L 88.199997 32.700001 C 87.300003 32.700001 87 32.299999 86.400002 31.6 C 86.099998 33.799999 88.699997 34.599998 89.5 32.799999 C 90.699997 32.799999 91.5 33.299999 91.699997 34.099998 C 92 34.900002 91.699997 35.700001 91.300003 36.099998 C 90.599998 37 89.400002 37 88.300003 36.400002 C 87.599998 36.099998 86.900002 35.400002 86.300003 34.700001 C 85.400002 33.700001 84.900002 33.200001 84.199997 32.900002 C 83.800003 32.700001 83.400002 32.599998 83.099998 32.599998 C 82.900002 32.599998 82.699997 32.5 82.400002 32.5 C 82.199997 32.5 82 32.5 81.800003 32.599998 C 80.199997 32.799999 78.599998 33.5 76.699997 33.700001 L 75.699997 33.700001 C 75.099998 34.299999 74.5 34.799999 74 35.200001 L 72.800003 36.200001 C 72.800003 36.200001 72.800003 36.200001 72.800003 36.200001 C 72.300003 36.700001 72 36.900002 72 36.900002 C 72.099998 38 72.199997 38.599998 72.199997 39.599998 C 72.199997 40.5 72.199997 40.900002 72.199997 41.200001 C 72.199997 41.599998 72.099998 41.900002 72 42.200001 C 71.900002 42.5 71.699997 42.700001 71.300003 42.700001 C 71 42.799999 70.199997 42.200001 69.900002 42.599998 C 69.699997 42.900002 69.900002 43.599998 70.199997 43.799999 L 72.400002 43.799999 C 72.699997 43.299999 72.800003 42.900002 72.900002 42.599998 C 73.099998 42.299999 73.199997 41.900002 73.400002 41.700001 C 73.599998 41.400002 73.699997 41.099998 73.800003 40.799999 C 73.800003 40.5 73.900002 40.299999 74 40.099998 C 74.199997 39.700001 74.400002 39.299999 74.5 39.099998 C 74.5 39 74.599998 39 74.599998 38.900002 C 74.699997 39 74.800003 39.200001 74.800003 39.299999 C 75.300003 40.099998 75.800003 40.700001 76.5 41 C 76.800003 41.099998 77 41.299999 77.099998 41.400002 C 77.199997 41.5 77.199997 41.799999 77.199997 42.099998 C 77.199997 42.400002 77.099998 42.700001 76.800003 42.799999 C 76.300003 43 75.599998 42.299999 75.300003 42.700001 C 75 43 75.300003 43.5 75.599998 43.900002 L 77.599998 43.900002 C 78.099998 43.099998 78.300003 42.099998 78.300003 41.200001 C 78.300003 40.299999 78.300003 40.099998 77.699997 39.799999 C 77.5 39.700001 77.300003 39.200001 77.199997 38.799999 C 77.199997 38.700001 77.199997 38.700001 77.199997 38.5 C 78.099998 38.200001 79.199997 37.599998 80.300003 36.799999 C 80.300003 37 80.300003 37.099998 80.300003 37.299999 C 80.5 38.599998 80.599998 39.700001 81.599998 40.599998 C 81.900002 40.900002 82.099998 41.099998 82.099998 41.299999 C 82.099998 41.400002 82 41.799999 81.800003 42 C 81.599998 42.5 81.099998 42.900002 80.699997 42.900002 C 80.199997 43 79.699997 42.299999 79.300003 42.700001 C 79 43 79.400002 43.700001 79.599998 43.900002 L 81.599998 43.900002 C 82.300003 42.700001 83.199997 41.700001 83.5 41 C 83.699997 40.5 83.699997 40.299999 83.300003 40.200001 C 82.599998 39.799999 82.699997 39 82.900002 38.099998 C 82.900002 37.900002 83 37.799999 83.099998 37.599998 C 83.599998 39 84.300003 40.299999 85.800003 40.700001 C 86.099998 40.700001 86.400002 40.900002 86.5 41 C 86.5 41.099998 86.5 41.400002 86.5 41.599998 C 86.400002 42 86.199997 42.599998 85.800003 42.799999 C 85.400002 43.099998 84.5 42.099998 84.199997 42.700001 C 84 43.099998 84.400002 43.700001 84.5 43.900002 L 86.5 43.900002 C 87 42.700001 87.5 41.599998 87.699997 40.799999 C 87.800003 39.900002 87.800003 39.5 87.099998 39.400002 C 86.699997 39.400002 86.400002 39.200001 86.300003 38.700001 C 86 37.799999 86.099998 36.200001 85.400002 35.200001 C 86.199997 36.099998 87 36.799999 87.800003 37.200001 C 89.5 38.099998 91.300003 37.799999 92.099998 36.599998 C 92.599998 35.599998 92.599998 34.599998 92.400002 33.900002"/>
    <path id="path6" fill="#ffffff" stroke="none" d="M 109.300003 10.599998 C 107.800003 10.400002 104.400002 10.799999 101.400002 11.400002 C 103.199997 10.5 103.800003 10.299999 104.400002 9.900002 C 104.599998 9.799999 104.699997 9.5 104.699997 9.099998 C 104.699997 8.700001 104.300003 8.599998 103.800003 8.700001 C 103.300003 8.700001 102.300003 9.099998 101 9.5 C 98.5 10.5 94.900002 12.200001 90.599998 15.1 C 86.800003 17.700001 84.300003 19.9 81.599998 22.6 C 80.900002 23.299999 80.099998 24.200001 79.199997 25.200001 C 79.099998 25 79 24.9 78.699997 25 C 79.699997 22.799999 79.800003 22.700001 80.300003 21.5 C 80.5 20.9 80.400002 20.5 80.199997 20.200001 C 79.900002 19.700001 79.5 20 79.199997 20.200001 C 78.800003 20.700001 78.699997 20.799999 77.800003 21.9 C 78.900002 18.200001 79.5 17.9 80.5 15.799999 C 80.599998 15.5 80.599998 15.1 80.5 14.799999 C 80.400002 14.5 80.199997 14.4 80 14.5 C 79.599998 14.700001 79.5 14.9 78.699997 15.799999 C 79.800003 13.700001 81.300003 11.200001 81.5 10.799999 C 81.699997 10.400002 81.900002 10.299999 81.5 9.599998 C 81.099998 9 80.800003 9.5 80.5 9.700001 C 80.300003 9.799999 79.800003 10.299999 79.099998 11.200001 C 80.699997 8.200001 82.199997 6.799999 82.5 6.299999 C 82.900002 5.700001 82.900002 5.599998 82.599998 4.900002 C 82.300003 4.299999 81.800003 4.599998 81.599998 4.900002 C 80.5 6 80.5 5.700001 78.599998 8 C 79.599998 5.400002 81.300003 3.400002 81.900002 2.400002 C 82.199997 2 82.199997 1.799999 81.900002 0.900002 C 81.800003 0.5 81.400002 0.299999 81 0.299999 C 80.5 0.5 80 0.799999 79 1.700001 C 76.900002 3.599998 74.099998 6.299999 71.800003 11.200001 C 69.599998 15.799999 69.099998 20.1 69.099998 23.1 C 69.099998 27.700001 70.300003 31.700001 71.400002 34.299999 C 71.400002 34.200001 71.400002 34.099998 71.400002 34 C 71.300003 32.799999 71.5 31.299999 71.800003 30.6 C 72.300003 28.799999 72.900002 27.799999 73.400002 27 L 72.5 25.799999 L 73.699997 26.200001 L 73 24.6 C 73 24.6 73.900002 24.700001 74.599998 25.6 C 75 25.200001 75.900002 24.9 76.699997 25.5 C 77.300003 25.5 77.599998 25.6 77.900002 25.700001 C 78.5 26.1 78.400002 26.700001 78.400002 26.9 C 78.099998 26.6 77.099998 26 76.199997 26.799999 L 78 27.4 L 75.699997 27.6 L 75.699997 30 L 72.900002 32.5 L 72.900002 33.400002 L 74.800003 31.700001 L 74.800003 32.599998 L 71.5 35.599998 L 71.5 36.5 L 75.699997 32.700001 L 75.699997 32.700001 L 76.800003 31.799999 L 76.800003 31.799999 C 77.400002 31.299999 77.699997 31 78.099998 30.799999 C 78.5 30.5 78.599998 30.799999 78.699997 31.299999 C 78.800003 31.700001 79.300003 32.099998 80.300003 31.200001 C 83.199997 28.5 86.300003 27.1 89.599998 25.5 C 87.800003 26.700001 84.599998 28.5 83.5 29.700001 C 83 30.299999 83.5 31.6 84.300003 31 C 85.699997 30.1 87.5 29.9 88.5 30 C 88.900002 30 89.400002 29.700001 89.699997 29.299999 C 90 29 90 28.6 89.400002 28.6 C 92.400002 27.700001 93.199997 27.4 95.699997 27.200001 C 96.400002 27.200001 96.800003 26.799999 96.900002 26.200001 C 97 25.700001 96.800003 25.5 96.099998 25.5 C 95.400002 25.4 94.099998 25.6 92.800003 25.799999 C 95.699997 24.6 99.199997 23.9 102 23.1 C 102.900002 22.799999 103 22.6 103 22.1 C 103.099998 21.5 102.699997 21.5 101.699997 21.5 C 99.699997 21.6 96.699997 21.799999 92.099998 23.1 C 96.400002 20.9 98.900002 19.9 102.800003 18.9 C 103.900002 18.6 104 18.299999 104.099998 17.799999 C 104.300003 17.200001 103.800003 17.200001 103.400002 17.200001 C 102.800003 17.200001 101.5 17.200001 98.800003 18 C 101.400002 16.9 104.300003 15.5 106.300003 14.9 C 106.699997 14.700001 107 14.5 107 14 C 107 13.6 106.900002 13.6 106.5 13.6 C 105.599998 13.6 104.199997 13.9 102.5 14.4 C 106 12.900002 107.099998 12.400002 109.5 12 C 110.300003 11.799999 110.400002 11.599998 110.5 11.099998 C 110.199997 10.599998 109.800003 10.599998 109.300003 10.599998 M 74.199997 22.6 C 74.199997 22.299999 74 22.1 73.800003 22 C 74.300003 20.700001 74.800003 19.799999 75.800003 18.4 C 74.900002 20.200001 74.5 21.799999 74.199997 22.6 M 71 21.5 C 71.699997 14 75.099998 8.5 77.400002 5.900002 C 74.099998 10.900002 72.199997 17.799999 71 21.5 M 83.5 23.700001 C 87.900002 19.5 93.900002 15.1 101.5 13.299999 C 95.099998 15.5 86.300003 21.5 83.5 23.700001"/>
    <path id="path7" fill="#ffffff" stroke="none" d="M 118.900002 17.700001 L 116.300003 10.5 L 117.900002 10.5 L 119.900002 16.1 L 121.900002 10.5 L 123 10.5 L 120.400002 17.700001 Z"/>
    <g id="Group">
        <path id="path8" fill="#ffffff" stroke="none" d="M 125.300003 13.799999 L 125.600006 13.799999 C 126.199997 13.799999 126.600006 13.700001 126.899994 13.4 C 127.100006 13.1 127.300003 12.799999 127.300003 12.5 C 127.300003 12.200001 127.199997 12 127 11.799999 C 126.800003 11.599998 126.399994 11.5 125.800003 11.5 L 125.300003 11.5 L 125.300003 13.799999 Z M 123.899994 17.700001 L 123.899994 10.599998 L 126.600006 10.599998 C 127.100006 10.599998 127.600006 10.700001 127.800003 10.799999 C 128.100006 10.900002 128.300003 11.099998 128.5 11.400002 C 128.699997 11.700001 128.699997 12 128.699997 12.299999 C 128.699997 12.700001 128.600006 13.1 128.300003 13.5 C 128.100006 13.9 127.699997 14.200001 127.300003 14.4 L 129.600006 17.700001 L 127.800003 17.700001 L 126 14.799999 L 125.199997 14.799999 L 125.199997 17.700001 L 123.899994 17.700001 Z"/>
    </g>
    <path id="path9" fill="#ffffff" stroke="none" d="M 130.699997 10.5 L 132.199997 10.5 L 132.199997 17.6 L 130.699997 17.6 Z"/>
    <g id="g1">
        <path id="path10" fill="#ffffff" stroke="none" d="M 132.800003 18.9 L 132.800003 17.799999 C 133.199997 18 133.600006 18 134 18 C 134.199997 18 134.300003 18 134.5 17.9 C 134.600006 17.799999 134.699997 17.700001 134.800003 17.6 C 134.899994 17.5 134.899994 17.200001 134.899994 16.700001 L 134.899994 10.400002 L 136.399994 10.400002 L 136.399994 16.5 C 136.399994 17.200001 136.300003 17.700001 136.199997 18 C 136 18.299999 135.800003 18.6 135.5 18.700001 C 135.199997 18.9 134.699997 19 134.199997 19 C 133.600006 19.1 133.199997 19.1 132.800003 18.9"/>
    </g>
    <path id="path11" fill="#ffffff" stroke="none" d="M 138.100006 17.700001 L 138.100006 10.5 L 142.699997 10.5 L 142.699997 11.5 L 139.600006 11.5 L 139.600006 13.5 L 142.199997 13.5 L 142.199997 14.5 L 139.600006 14.5 L 139.600006 16.700001 L 142.899994 16.700001 L 142.899994 17.700001 Z"/>
    <g id="g2">
        <path id="path12" fill="#ffffff" stroke="none" d="M 117 23.6 L 118.5 23.6 L 118.5 28 C 118.5 28.799999 118.600006 29.299999 118.899994 29.599998 C 119.199997 29.900002 119.5 30 119.899994 30 C 120.300003 30 120.699997 29.900002 120.899994 29.599998 C 121.100006 29.299999 121.300003 28.900002 121.300003 28.099998 L 121.300003 23.6 L 122.600006 23.6 L 122.600006 28 C 122.600006 28.799999 122.5 29.400002 122.300003 29.799999 C 122.100006 30.200001 121.800003 30.400002 121.399994 30.599998 C 121 30.799999 120.5 30.900002 119.899994 30.900002 C 119.300003 30.900002 118.800003 30.799999 118.399994 30.599998 C 118 30.400002 117.600006 30.099998 117.399994 29.700001 C 117.199997 29.299999 117 28.700001 117 27.900002 L 117 23.6 Z"/>
    </g>
    <path id="path13" fill="#ffffff" stroke="none" d="M 124.400002 30.700001 L 124.400002 23.6 L 125.699997 23.6 L 129 28.5 L 129 23.6 L 130.199997 23.6 L 130.199997 30.700001 L 128.899994 30.700001 L 125.599998 25.9 L 125.599998 30.700001 Z"/>
    <path id="path14" fill="#ffffff" stroke="none" d="M 132.100006 23.6 L 133.600006 23.6 L 133.600006 30.700001 L 132.100006 30.700001 Z"/>
    <path id="path15" fill="#ffffff" stroke="none" d="M 137.199997 30.700001 L 134.600006 23.6 L 136.199997 23.6 L 138.199997 29.1 L 140.199997 23.6 L 141.300003 23.6 L 138.699997 30.700001 Z"/>
    <path id="path16" fill="#ffffff" stroke="none" d="M 142.100006 30.700001 L 142.100006 23.6 L 146.600006 23.6 L 146.600006 24.6 L 143.600006 24.6 L 143.600006 26.6 L 146.100006 26.6 L 146.100006 27.5 L 143.600006 27.5 L 143.600006 29.700001 L 146.899994 29.700001 L 146.899994 30.700001 Z"/>
    <g id="g3">
        <path id="path17" fill="#ffffff" stroke="none" d="M 149.5 26.799999 L 149.800003 26.799999 C 150.399994 26.799999 150.800003 26.700001 151.100006 26.4 C 151.300003 26.1 151.5 25.799999 151.5 25.5 C 151.5 25.200001 151.399994 25 151.199997 24.799999 C 151 24.6 150.600006 24.5 150 24.5 L 149.5 24.5 L 149.5 26.799999 Z M 148.100006 30.700001 L 148.100006 23.6 L 150.800003 23.6 C 151.300003 23.6 151.800003 23.700001 152 23.799999 C 152.300003 23.9 152.5 24.1 152.699997 24.4 C 152.899994 24.700001 152.899994 25 152.899994 25.299999 C 152.899994 25.700001 152.800003 26.1 152.5 26.5 C 152.300003 26.9 151.899994 27.200001 151.5 27.299999 L 153.800003 30.599998 L 152 30.599998 L 150.199997 27.700001 L 149.399994 27.700001 L 149.399994 30.599998 L 148.100006 30.599998 Z"/>
        <path id="path18" fill="#ffffff" stroke="none" d="M 154.300003 30.700001 L 154.300003 29.5 C 154.899994 29.700001 155.300003 29.900002 155.600006 29.900002 C 155.899994 29.900002 156.100006 30 156.399994 30 C 156.800003 30 157.100006 29.900002 157.300003 29.700001 C 157.5 29.5 157.600006 29.299999 157.600006 29 C 157.600006 28.799999 157.5 28.599998 157.399994 28.5 C 157.300003 28.299999 157 28.099998 156.600006 27.900002 L 156.100006 27.599998 C 155.399994 27.200001 154.899994 26.9 154.699997 26.5 C 154.5 26.200001 154.300003 25.799999 154.300003 25.4 C 154.300003 24.9 154.5 24.4 154.899994 24 C 155.300003 23.6 155.899994 23.4 156.699997 23.4 C 157.300003 23.4 157.899994 23.5 158.600006 23.6 L 158.600006 24.700001 C 157.899994 24.4 157.300003 24.299999 156.800003 24.299999 C 156.399994 24.299999 156.199997 24.4 156 24.5 C 155.800003 24.700001 155.699997 24.799999 155.699997 25.1 C 155.699997 25.299999 155.800003 25.4 155.899994 25.6 C 156 25.700001 156.300003 25.9 156.699997 26.200001 L 157.199997 26.5 C 158 26.9 158.5 27.299999 158.699997 27.599998 C 158.899994 27.900002 159 28.299999 159 28.700001 C 159 29.299999 158.800003 29.799999 158.300003 30.200001 C 157.899994 30.599998 157.100006 30.799999 156.199997 30.799999 C 155.800003 30.900002 155.100006 30.799999 154.300003 30.700001"/>
    </g>
    <path id="path19" fill="#ffffff" stroke="none" d="M 160.399994 23.6 L 161.899994 23.6 L 161.899994 30.700001 L 160.399994 30.700001 Z"/>
    <path id="path20" fill="#ffffff" stroke="none" d="M 165 30.700001 L 165 24.6 L 162.399994 24.6 L 162.399994 23.6 L 169 23.6 L 169 24.6 L 166.399994 24.6 L 166.399994 30.700001 Z"/>
    <path id="path21" fill="#ffffff" stroke="none" d="M 169.600006 30.700001 L 169.600006 23.6 L 174.100006 23.6 L 174.100006 24.6 L 171 24.6 L 171 26.6 L 173.600006 26.6 L 173.600006 27.5 L 171 27.5 L 171 29.700001 L 174.399994 29.700001 L 174.399994 30.700001 Z"/>
    <path id="path22" fill="#ffffff" stroke="none" d="M 175.600006 23.6 L 177.100006 23.6 L 177.100006 30.700001 L 175.600006 30.700001 Z"/>
    <path id="path23" fill="#ffffff" stroke="none" d="M 118.5 40.900002 L 120.699997 40.900002 L 119.599998 38.099998 L 118.5 40.900002 Z M 116.300003 43.799999 L 119.099998 36.700001 L 120.599998 36.700001 L 123.400002 43.799999 L 121.900002 43.799999 L 121.199997 41.900002 L 118.199997 41.900002 L 117.5 43.799999 L 116.300003 43.799999 Z"/>
    <path id="path24" fill="#ffffff" stroke="none" d="M 124.300003 43.799999 L 124.300003 36.599998 L 126.199997 36.599998 L 128 41.700001 L 129.699997 36.599998 L 131.5 36.599998 L 131.5 43.799999 L 130.100006 43.799999 L 130.100006 38.400002 L 128.300003 43.299999 L 127.099998 43.299999 L 125.400002 38.299999 L 125.400002 43.799999 Z"/>
    <g id="g4">
        <path id="path25" fill="#ffffff" stroke="none" d="M 132.899994 43.700001 L 132.899994 42.5 C 133.5 42.700001 133.899994 42.900002 134.100006 42.900002 C 134.399994 42.900002 134.600006 43 134.899994 43 C 135.300003 43 135.600006 42.900002 135.800003 42.700001 C 136 42.5 136.100006 42.299999 136.100006 42 C 136.100006 41.799999 136 41.599998 135.899994 41.5 C 135.800003 41.299999 135.5 41.099998 135.100006 40.900002 L 134.600006 40.599998 C 133.899994 40.200001 133.399994 39.900002 133.199997 39.5 C 133 39.200001 132.800003 38.799999 132.800003 38.400002 C 132.800003 37.900002 133 37.400002 133.399994 37 C 133.800003 36.599998 134.399994 36.400002 135.199997 36.400002 C 135.800003 36.400002 136.399994 36.5 137.100006 36.599998 L 137.100006 37.700001 C 136.399994 37.400002 135.800003 37.299999 135.300003 37.299999 C 134.899994 37.299999 134.699997 37.400002 134.5 37.5 C 134.300003 37.700001 134.199997 37.799999 134.199997 38.099998 C 134.199997 38.299999 134.300003 38.400002 134.399994 38.599998 C 134.5 38.700001 134.800003 38.900002 135.199997 39.200001 L 135.699997 39.5 C 136.5 39.900002 137 40.299999 137.199997 40.700001 C 137.399994 41 137.5 41.400002 137.5 41.799999 C 137.5 42.400002 137.300003 42.900002 136.800003 43.299999 C 136.399994 43.700001 135.600006 43.900002 134.699997 43.900002 C 134.399994 43.900002 133.699997 43.900002 132.899994 43.700001"/>
    </g>
    <path id="path26" fill="#ffffff" stroke="none" d="M 140.199997 43.799999 L 140.199997 37.599998 L 137.699997 37.599998 L 137.699997 36.599998 L 144.300003 36.599998 L 144.300003 37.599998 L 141.699997 37.599998 L 141.699997 43.799999 Z"/>
    <path id="path27" fill="#ffffff" stroke="none" d="M 144.899994 43.799999 L 144.899994 36.599998 L 149.399994 36.599998 L 149.399994 37.599998 L 146.399994 37.599998 L 146.399994 39.599998 L 148.899994 39.599998 L 148.899994 40.599998 L 146.399994 40.599998 L 146.399994 42.799999 L 149.699997 42.799999 L 149.699997 43.799999 Z"/>
    <g id="g5">
        <path id="path28" fill="#ffffff" stroke="none" d="M 152.199997 39.900002 L 152.5 39.900002 C 153.100006 39.900002 153.5 39.799999 153.800003 39.5 C 154 39.200001 154.100006 38.900002 154.100006 38.599998 C 154.100006 38.299999 154 38.099998 153.800003 37.900002 C 153.600006 37.700001 153.199997 37.599998 152.600006 37.599998 L 152.100006 37.599998 L 152.100006 39.900002 Z M 150.800003 43.799999 L 150.800003 36.700001 L 153.5 36.700001 C 154 36.700001 154.5 36.799999 154.800003 36.900002 C 155.100006 37 155.300003 37.200001 155.5 37.5 C 155.699997 37.799999 155.800003 38.099998 155.800003 38.400002 C 155.800003 38.799999 155.699997 39.200001 155.399994 39.599998 C 155.199997 40 154.800003 40.299999 154.399994 40.5 L 156.699997 43.799999 L 154.899994 43.799999 L 153.100006 40.900002 L 152.300003 40.900002 L 152.300003 43.799999 L 150.800003 43.799999 Z"/>
        <path id="path29" fill="#ffffff" stroke="none" d="M 158.899994 42.799999 L 160 42.799999 C 160.600006 42.799999 161 42.700001 161.300003 42.5 C 161.600006 42.299999 161.800003 42 162 41.599998 C 162.199997 41.200001 162.300003 40.700001 162.300003 40.200001 C 162.300003 39.700001 162.199997 39.200001 162 38.900002 C 161.800003 38.5 161.600006 38.200001 161.300003 38 C 161 37.799999 160.5 37.700001 159.699997 37.700001 L 158.800003 37.700001 L 158.800003 42.799999 Z M 157.399994 43.799999 L 157.399994 36.700001 L 160.5 36.700001 C 161.300003 36.700001 162 36.799999 162.399994 37.099998 C 162.899994 37.400002 163.199997 37.799999 163.5 38.299999 C 163.800003 38.799999 163.899994 39.400002 163.899994 40.200001 C 163.899994 40.900002 163.800003 41.5 163.5 42.099998 C 163.199997 42.700001 162.899994 43.099998 162.399994 43.400002 C 161.899994 43.700001 161.199997 43.900002 160.399994 43.900002 L 157.399994 43.900002 Z"/>
    </g>
    <path id="path30" fill="#ffffff" stroke="none" d="M 166.199997 40.900002 L 168.399994 40.900002 L 167.300003 38.099998 L 166.199997 40.900002 Z M 164 43.799999 L 166.800003 36.700001 L 168.300003 36.700001 L 171.100006 43.799999 L 169.600006 43.799999 L 168.899994 41.900002 L 165.899994 41.900002 L 165.199997 43.799999 L 164 43.799999 Z"/>
    <path id="path31" fill="#ffffff" stroke="none" d="M 171.800003 43.799999 L 171.800003 36.599998 L 173.800003 36.599998 L 175.5 41.700001 L 177.300003 36.599998 L 179 36.599998 L 179 43.799999 L 177.600006 43.799999 L 177.600006 38.400002 L 175.899994 43.299999 L 174.699997 43.299999 L 173 38.299999 L 173 43.799999 Z"/>
</svg>
